<svg xmlns="http://www.w3.org/2000/svg" viewBox="0 0 86.07 128.95"><defs><style>.cls-1{fill:#fc0201;}</style></defs><title>Ресурс 2</title><g id="Слой_2" data-name="Слой 2"><g id="Слой_1-2" data-name="Слой 1"><path class="cls-1" d="M17.89,12.76a.22.22,0,0,0,.25-.24A8.65,8.65,0,0,0,20,11a68.17,68.17,0,0,1,6.59-4.15,41.14,41.14,0,0,1,15.8-4.42,47.72,47.72,0,0,1,7.93,0,40.54,40.54,0,0,1,21.6,8.31,48.87,48.87,0,0,1,7.41,7.11,39.53,39.53,0,0,1,9,18.73,44.15,44.15,0,0,1-.75,20.5,56.43,56.43,0,0,1-3.32,7.66q-2.8,6.08-5.63,12.13a26.76,26.76,0,0,0-1.83,4h0a1.16,1.16,0,0,0-.44.91l0,.09a4.33,4.33,0,0,0-.83,1.71c-.07,0-.09.07-.05.14-1.34,2.41-2.36,5-3.53,7.47-2.07,4.34-4.16,8.67-6.21,13-2.24,4.74-4.46,9.5-6.69,14.24-1.09,2.33-2.1,4.69-3.3,7a10.22,10.22,0,0,1-9.68,5.84,10,10,0,0,1-9.53-6.06c-5-10.52-9.9-21.06-14.87-31.58C19.39,88.77,17.06,84,14.8,79.2c-3.13-6.65-6.26-13.31-9.33-20A27.37,27.37,0,0,1,3.4,50.57a47.37,47.37,0,0,1,.49-13.71A40,40,0,0,1,10.6,20.94c.71-1,1.46-2,2.19-3C14.44,16.2,16.12,14.44,17.89,12.76Zm28.18,54C58,67,67.77,56.84,67.66,45.22a21.53,21.53,0,0,0-43,0C24.58,56.83,34.35,66.92,46.07,66.74Z" transform="translate(-3.12 -2.27)"/></g></g></svg>